<?xml version="1.0"?>
<svg xmlns="http://www.w3.org/2000/svg" height="512px" viewBox="0 -19 512 511" width="512px" class=""><g><path d="m32.191406 80.933594h192.875v334.453125h-192.875c-13.585937 0-24.585937-11.011719-24.585937-24.597657v-285.269531c0-13.585937 11-24.585937 24.585937-24.585937zm0 0" fill="#b4e7fd" data-original="#B4E7FD" class=""/><path d="m504.394531 105.519531v285.269531c0 13.585938-11.007812 24.597657-24.585937 24.597657h-223.808594v-334.453125h223.808594c13.578125 0 24.585937 11 24.585937 24.585937zm0 0" fill="#b4e7fd" data-original="#B4E7FD" class=""/><path d="m380.097656 31.375h-248.203125c-17.140625 0-31.035156 13.894531-31.035156 31.035156v371.488282c0 17.140624 13.894531 31.039062 31.035156 31.039062h248.203125c17.140625 0 31.039063-13.898438 31.039063-31.039062v-371.488282c0-17.140625-13.898438-31.035156-31.039063-31.035156zm0 0" fill="#e1ebf0" data-original="#E1EBF0" class="" data-old_color="#e1ebf0" style="fill:#CDD5D9"/><path d="m374.671875 126.78125c0 65.542969-53.132813 118.675781-118.675781 118.675781-65.542969 0-118.675782-53.132812-118.675782-118.675781s53.132813-118.675781 118.675782-118.675781c65.542968 0 118.675781 53.132812 118.675781 118.675781zm0 0" fill="#f9d35a" data-original="#F9D35A" class=""/><path d="m335.617188 214.789062c-21.058594 19.058594-48.980469 30.667969-79.621094 30.667969-30.628906 0-58.558594-11.609375-79.617188-30.65625 13.039063-31.105469 43.777344-52.945312 79.617188-52.945312 35.828125 0 66.570312 21.839843 79.621094 52.933593zm0 0" fill="#b4e7fd" data-original="#B4E7FD" class=""/><path d="m309.941406 107.898438c0 29.792968-24.152344 53.945312-53.945312 53.945312-29.792969 0-53.945313-24.152344-53.945313-53.945312 0-29.789063 24.152344-53.941407 53.945313-53.941407 29.792968 0 53.945312 24.152344 53.945312 53.941407zm0 0" fill="#ffe2c5" data-original="#FFE2C5" class="active-path" data-old_color="#ffe2c5" style="fill:#E5CFB9"/><path d="m504.394531 173.496094c4.203125 0 7.605469-3.40625 7.605469-7.605469v-60.363281c0-17.753906-14.445312-32.199219-32.199219-32.199219h-61.066406v-10.917969c0-21.304687-17.332031-38.636718-38.636719-38.636718h-51.128906c-20.621094-14.652344-45.808594-23.273438-72.972656-23.273438-27.164063 0-52.351563 8.621094-72.972656 23.273438h-51.128907c-21.304687 0-38.640625 17.332031-38.640625 38.636718v10.917969h-61.066406c-17.75 0-32.1875 14.441406-32.1875 32.191406v285.28125c0 17.75 14.4375 32.1875 32.1875 32.1875h61.066406v10.910157c0 21.304687 17.335938 38.636718 38.636719 38.636718h248.203125c21.308594 0 38.640625-17.332031 38.640625-38.636718v-10.910157h61.066406c17.753907 0 32.199219-14.445312 32.199219-32.199219v-194.480468c0-4.199219-3.40625-7.605469-7.605469-7.605469s-7.601562 3.40625-7.601562 7.605469v194.484375c0 9.367187-7.625 16.988281-16.992188 16.988281h-61.066406v-62.859375h42.199219c4.199218 0 7.601562-3.402344 7.601562-7.601563 0-4.199218-3.402344-7.605468-7.601562-7.605468h-42.199219v-19.183594h42.199219c4.199218 0 7.601562-3.402344 7.601562-7.601562 0-4.199219-3.402344-7.605469-7.601562-7.605469h-42.199219v-17.984375h42.199219c4.199218 0 7.601562-3.40625 7.601562-7.605469s-3.402344-7.601563-7.601562-7.601563h-42.199219v-173.59375h61.066406c9.367188 0 16.992188 7.621094 16.992188 16.988282v60.363281c0 4.199219 3.402343 7.605469 7.601562 7.605469zm-137.324219-46.714844c0 28.9375-11.128906 55.324219-29.324218 75.109375-11.042969-19.542969-28.542969-34.226563-49.140625-41.824219 17.363281-10.894531 28.9375-30.199218 28.9375-52.167968 0-33.9375-27.609375-61.546876-61.546875-61.546876s-61.546875 27.613282-61.546875 61.546876c0 21.96875 11.574219 41.273437 28.941406 52.167968-20.605469 7.601563-38.101563 22.28125-49.136719 41.832032-18.199218-19.789063-29.332031-46.175782-29.332031-75.117188 0-61.246094 49.828125-111.074219 111.074219-111.074219s111.074218 49.828125 111.074218 111.074219zm-111.074218 27.460938c-25.550782 0-46.339844-20.789063-46.339844-46.34375 0-25.550782 20.789062-46.339844 46.339844-46.339844 25.550781 0 46.339844 20.789062 46.339844 46.339844 0 25.554687-20.789063 46.34375-46.339844 46.34375zm.003906 15.210937c29.949219 0 56.96875 16.8125 70.289062 43.261719-19.160156 15.703125-43.644531 25.140625-70.292968 25.140625-26.644532 0-51.125-9.433594-70.285156-25.136719 13.3125-26.453125 40.328124-43.265625 70.289062-43.265625zm147.527344 264.445313c0 12.921874-10.511719 23.429687-23.429688 23.429687h-248.203125c-12.921875 0-23.429687-10.507813-23.429687-23.429687v-37.324219c0-4.199219-3.40625-7.605469-7.605469-7.605469s-7.605469 3.40625-7.605469 7.605469v11.207031h-61.066406c-9.363281 0-16.980469-7.617188-16.980469-16.980469v-285.28125c0-9.363281 7.617188-16.984375 16.980469-16.984375h61.066406v173.59375h-42.195312c-4.203125 0-7.605469 3.40625-7.605469 7.605469s3.402344 7.605469 7.605469 7.605469h42.195312v17.984375h-42.195312c-4.203125 0-7.605469 3.402343-7.605469 7.605469 0 4.199218 3.402344 7.601562 7.605469 7.601562h42.195312v19.183594h-42.195312c-4.203125 0-7.605469 3.402344-7.605469 7.601562 0 4.199219 3.402344 7.605469 7.605469 7.605469h42.195312v21.234375c0 4.199219 3.402344 7.605469 7.605469 7.605469 4.199219 0 7.601563-3.40625 7.601563-7.605469v-303.746094c0-12.917968 10.511718-23.429687 23.429687-23.429687h33.4375c-22.03125 22.742187-35.613281 53.714843-35.613281 87.800781 0 69.632812 56.648437 126.28125 126.28125 126.28125 69.632812 0 126.28125-56.648438 126.28125-126.28125 0-34.085938-13.582032-65.058594-35.613282-87.800781h33.429688c12.921875 0 23.433594 10.511719 23.433594 23.429687zm0 0" data-original="#000000" class="" style="fill:#AF9453" data-old_color="#000000"/><path d="m363.832031 292.617188h-215.671875c-4.199218 0-7.605468 3.40625-7.605468 7.605468 0 4.199219 3.40625 7.605469 7.605468 7.605469h215.675782c4.199218 0 7.601562-3.40625 7.601562-7.605469 0-4.199218-3.402344-7.605468-7.605469-7.605468zm0 0" data-original="#000000" class="" style="fill:#AF9453" data-old_color="#000000"/><path d="m363.832031 325.820312h-215.671875c-4.199218 0-7.605468 3.402344-7.605468 7.601563s3.40625 7.605469 7.605468 7.605469h215.675782c4.199218 0 7.601562-3.40625 7.601562-7.605469s-3.402344-7.601563-7.605469-7.601563zm0 0" data-original="#000000" class="" style="fill:#AF9453" data-old_color="#000000"/><path d="m202.816406 360.199219h-54.65625c-4.199218 0-7.605468 3.40625-7.605468 7.605469 0 4.199218 3.40625 7.601562 7.605468 7.601562h54.65625c4.203125 0 7.605469-3.402344 7.605469-7.601562 0-4.199219-3.402344-7.605469-7.605469-7.605469zm0 0" data-original="#000000" class="" style="fill:#AF9453" data-old_color="#000000"/></g> </svg>
